<?xml version="1.0" standalone="no"?>
<!DOCTYPE svg PUBLIC "-//W3C//DTD SVG 20010904//EN"
 "http://www.w3.org/TR/2001/REC-SVG-20010904/DTD/svg10.dtd">
<svg version="1.0" xmlns="http://www.w3.org/2000/svg"
 width="350.000000pt" height="350.000000pt" viewBox="0 0 350.000000 350.000000"
 preserveAspectRatio="xMidYMid meet">
<metadata>
Created by potrace 1.14, written by Peter Selinger 2001-2017
</metadata>
<g transform="translate(0.000000,350.000000) scale(0.100000,-0.100000)"
fill="#000000" stroke="none">
<path d="M1253 2292 c-49 -23 -61 -79 -33 -152 24 -61 18 -124 -15 -157 -20
-19 -81 -23 -77 -5 1 8 -2 11 -7 8 -5 -3 -13 0 -18 7 -23 28 -22 67 3 146 30
95 26 124 -16 146 -36 19 -34 19 -69 1 -18 -10 -36 -32 -47 -61 -11 -25 -22
-45 -25 -45 -3 0 -5 -10 -4 -22 1 -13 -1 -32 -6 -43 -5 -13 -8 -15 -8 -5 -4
71 -52 142 -114 170 -49 22 -150 19 -209 -8 -52 -23 -61 -33 -81 -92 -10 -27
-16 -36 -17 -23 0 37 -38 111 -64 128 -30 20 -62 15 -96 -15 -21 -18 -22 -24
-12 -56 9 -31 8 -38 -9 -55 -15 -15 -30 -19 -60 -16 -54 6 -63 16 -50 62 17
64 -20 99 -79 75 -45 -19 -59 -49 -56 -117 4 -88 28 -124 95 -142 38 -10 64
-12 90 -5 46 12 81 7 81 -11 0 -18 -37 -43 -76 -51 -24 -4 -34 0 -58 25 -45
47 -95 40 -126 -19 -36 -67 61 -145 197 -158 59 -6 74 -4 116 16 51 24 83 65
93 120 7 34 23 44 25 15 2 -54 27 -94 78 -125 30 -19 50 -23 116 -23 71 0 85
3 121 28 45 31 79 83 89 140 9 44 12 44 20 -2 19 -111 96 -169 226 -169 118 0
186 42 217 134 24 74 3 253 -38 319 -28 45 -57 56 -97 37z m-508 -154 c57 10
86 -121 38 -170 -24 -23 -98 -27 -119 -7 -17 18 -27 83 -19 126 5 26 14 38 38
48 18 7 33 10 35 6 1 -5 14 -6 27 -3z"/>
<path d="M2478 2305 c-4 -4 -28 -9 -55 -12 -73 -8 -133 -41 -157 -88 -17 -32
-21 -59 -21 -131 0 -83 -1 -90 -17 -80 -13 8 -22 6 -37 -8 -21 -19 -21 -19
-22 5 -2 29 -2 24 5 84 3 28 10 73 15 102 17 88 1 123 -58 123 -21 0 -45 -6
-54 -13 -17 -11 -36 -95 -31 -131 1 -9 -2 -16 -7 -16 -6 0 -8 -4 -5 -8 3 -5 6
-49 7 -98 1 -49 7 -121 13 -159 l12 -70 57 -1 c43 0 63 5 78 19 24 23 39 58
39 95 0 25 2 24 19 -13 18 -40 41 -64 79 -84 28 -15 132 -30 138 -19 3 4 9 6
14 3 5 -3 36 8 67 25 32 16 54 30 50 30 -4 0 0 9 10 19 10 11 24 40 31 64 11
38 15 53 21 87 1 3 6 -2 11 -10 12 -19 167 -27 199 -11 20 11 21 10 17 -25 -6
-47 -24 -65 -67 -67 -29 -2 -34 2 -37 23 -6 39 -21 50 -68 50 -50 0 -57 -8
-57 -67 0 -54 26 -94 72 -109 17 -5 29 -12 27 -15 -3 -2 28 -2 67 2 81 7 124
23 133 51 3 10 8 16 12 14 4 -2 8 8 8 22 1 15 3 46 4 70 3 50 14 56 17 9 4
-46 27 -98 55 -122 77 -65 236 -56 301 18 79 89 84 280 10 367 -50 58 -111 75
-209 59 -105 -18 -150 -62 -158 -155 -5 -51 -16 -54 -16 -5 0 48 -18 130 -33
149 -12 15 -63 16 -72 1 -5 -6 -27 -8 -62 -3 -92 11 -105 9 -135 -25 -20 -22
-28 -42 -28 -68 l0 -37 -26 51 c-27 52 -81 93 -122 93 -11 0 -22 5 -24 11 -2
5 -6 7 -10 4z m386 -137 c7 -20 5 -33 -8 -52 -14 -23 -20 -25 -38 -15 -16 8
-19 8 -13 -1 6 -9 2 -9 -14 -1 -23 13 -28 50 -10 82 16 30 71 21 83 -13z
m-349 -52 c27 -28 28 -115 1 -145 -10 -11 -22 -18 -27 -16 -4 3 -10 1 -13 -4
-10 -15 -70 -1 -88 21 -21 24 -24 114 -5 140 15 19 75 37 97 30 8 -3 24 -15
35 -26z m756 3 c20 -17 24 -30 23 -75 0 -71 -25 -98 -86 -97 -55 1 -74 24 -77
96 -2 46 2 59 20 76 30 28 88 28 120 0z m-274 -61 c-3 -8 -6 -5 -6 6 -1 11 2
17 5 13 3 -3 4 -12 1 -19z"/>
<path d="M1498 2274 c-29 -12 -40 -25 -52 -57 -36 -95 -48 -335 -20 -389 17
-33 56 -37 109 -12 38 18 44 32 34 89 -5 26 -3 42 4 47 19 12 25 10 37 -13 10
-18 15 -33 23 -75 2 -6 11 -23 20 -38 14 -21 23 -25 40 -20 50 15 111 103 100
145 -3 10 -23 29 -44 41 -38 21 -52 48 -26 48 40 0 77 87 63 144 -21 84 -181
134 -288 90z m140 -100 c51 -25 33 -84 -24 -84 -58 0 -79 34 -48 78 18 26 30
27 72 6z"/>
<path d="M1100 1693 c-61 -20 -58 -9 -55 -207 3 -215 16 -279 57 -284 40 -5
108 16 108 34 0 8 -6 27 -13 42 -7 15 -13 34 -12 42 1 8 3 20 3 27 2 15 36 34
72 39 17 3 36 -3 54 -17 25 -20 27 -27 24 -75 -3 -51 -1 -55 26 -68 33 -16 84
-6 104 21 6 9 12 35 12 57 l0 41 15 -29 c26 -49 72 -85 135 -104 39 -11 127
-8 155 6 32 16 42 27 80 84 27 40 33 87 13 89 -68 5 -154 -13 -143 -31 10 -16
-25 -32 -57 -26 -45 9 -69 29 -71 61 l-2 27 116 -2 c153 -1 169 3 169 45 0
111 -117 227 -226 224 -91 -2 -176 -80 -183 -166 -1 -18 -11 -13 -15 9 -11 54
-20 114 -18 121 1 4 -3 7 -8 7 -5 0 -10 7 -10 15 0 20 -39 28 -81 17 l-34 -8
-1 -65 c-1 -35 -2 -69 -3 -74 -1 -12 -57 -35 -84 -35 -36 0 -55 35 -56 101 -1
78 -20 99 -71 82z m632 -141 c37 -24 23 -41 -35 -43 -53 -2 -84 15 -66 38 7 8
18 12 26 9 8 -3 11 -1 8 4 -10 17 38 11 67 -8z"/>
<path d="M2009 1679 c-47 -23 -58 -38 -75 -101 -20 -70 -29 -311 -13 -341 25
-46 55 -51 120 -17 32 17 37 27 32 64 -9 67 -9 71 12 71 15 0 25 -15 44 -70
13 -38 29 -73 35 -77 15 -10 47 0 75 26 27 24 62 96 54 110 -3 5 -1 6 5 2 7
-4 12 -13 12 -19 0 -20 52 -74 93 -96 45 -25 157 -37 190 -20 59 30 117 110
117 160 0 19 -10 22 -66 19 -56 -3 -65 -6 -88 -35 -20 -25 -27 -27 -59 -21
-21 4 -44 17 -57 33 -36 46 -29 50 93 52 97 2 130 4 171 10 12 2 -2 98 -20
134 -22 41 -80 95 -122 113 -83 34 -185 0 -235 -78 -34 -54 -53 -194 -31 -229
5 -9 -1 -7 -16 4 -14 9 -35 22 -47 27 -31 13 -29 32 7 52 35 20 50 53 50 108
0 68 -77 123 -180 129 -30 1 -57 4 -60 5 -3 1 -21 -5 -41 -15z m105 -101 c-4
-7 -3 -8 4 -4 18 11 52 -16 52 -41 0 -41 -66 -57 -107 -25 l-23 17 20 33 c12
19 28 32 40 32 14 0 19 -4 14 -12z m440 -29 c18 -14 24 -25 18 -31 -14 -14
-100 -12 -118 2 -12 11 -11 15 7 31 29 25 60 24 93 -2z"/>
</g>
</svg>
